Coordinates
version=1
nRows=5
nColumns=63
inDegrees=yes

Units are S.I. units (second, meters, Newtons, ...)
If the header above contains a line with 'inDegrees', this indicates whether rotational values are in degrees (yes) or radians (no).

endheader
time	pelvis_tilt	pelvis_list	pelvis_rotation	pelvis_tx	pelvis_ty	pelvis_tz	hip_flexion_r	hip_adduction_r	hip_rotation_r	knee_angle_r	knee_angle_r_beta	ankle_angle_r	subtalar_angle_r	mtp_angle_r	hip_flexion_l	hip_adduction_l	hip_rotation_l	knee_angle_l	knee_angle_l_beta	ankle_angle_l	subtalar_angle_l	mtp_angle_l	L5_S1_Flex_Ext	L5_S1_Lat_Bending	L5_S1_axial_rotation	L4_L5_Flex_Ext	L4_L5_Lat_Bending	L4_L5_axial_rotation	L3_L4_Flex_Ext	L3_L4_Lat_Bending	L3_L4_axial_rotation	L2_L3_Flex_Ext	L2_L3_Lat_Bending	L2_L3_axial_rotation	L1_L2_Flex_Ext	L1_L2_Lat_Bending	L1_L2_axial_rotation	L1_T12_Flex_Ext	L1_T12_Lat_Bending	L1_T12_axial_rotation	Abs_r3	Abs_r2	Abs_r1	Abs_t1	Abs_t2	neck_flexion	neck_bending	neck_rotation	arm_flex_r	arm_add_r	arm_rot_r	elbow_flex_r	pro_sup_r	wrist_flex_r	wrist_dev_r	arm_flex_l	arm_add_l	arm_rot_l	elbow_flex_l	pro_sup_l	wrist_flex_l	wrist_dev_l
      2.50847458	     -2.37545910	     -6.93269296	     90.01964246	      0.15829600	      0.94149082	      0.74552399	      7.56212407	     -3.09602839	    -11.46514133	     12.56996458	      0.21938727	     23.50918467	     18.60085164	      0.00000000	      8.45280299	      0.79646168	     -4.88036929	     12.87530962	      0.22471655	     22.21898417	      1.54024656	      0.00000000	     -0.33952226	      0.03885520	      0.83780257	     -0.63052679	      0.05167742	      0.89016524	     -0.55780112	      0.09447254	      0.89016524	     -0.38803999	      0.09447254	      0.73307725	     -0.31528037	      0.07923353	      0.68071459	     -0.19400302	      0.06018671	      0.62835193	     -2.42517355	      0.43953784	      4.65960658	      0.00000000	      0.00000000	      9.94805725	      3.07972204	      2.71814540	     48.70471703	     -2.11342748	    129.53858685	      0.14625497	      1.44405596	    -67.57848623	     -9.29258017	     49.28974027	      5.39344266	    135.64981675	      0.13712933	      0.98699547	    -69.60210879	    -12.06960024
      2.52542373	     -2.42414414	     -7.05798985	     90.06819925	      0.15836449	      0.94141918	      0.74565119	      7.71956015	     -3.14712746	    -11.49345430	     12.62324847	      0.22031725	     23.51516173	     18.56317109	      0.00000000	      8.62627870	      0.83443631	     -5.05681214	     12.91692490	      0.22544287	     21.85027945	      1.59963962	      0.00000000	     -0.34781298	      0.03103858	      0.79768694	     -0.64592349	      0.04128132	      0.84754238	     -0.57142195	      0.07546721	      0.84754238	     -0.39751546	      0.07546721	      0.69797608	     -0.32297913	      0.06329388	      0.64812064	     -0.19874034	      0.04807877	      0.59826521	     -2.48439335	      0.35111467	      4.43649548	      0.00000000	      0.00000000	      9.78178503	      3.27510755	      2.70950427	     49.22076584	     -2.16266961	    129.58943248	      0.14184754	      1.48828725	    -67.67898884	     -9.65859284	     50.06157262	      5.41408773	    134.67138564	      0.13646453	      0.90557645	    -69.59068511	    -11.62257856
      2.54237288	     -2.44098375	     -7.15427460	     90.11031978	      0.15847517	      0.94132817	      0.74556660	      7.82878558	     -3.15708362	    -11.49862190	     12.65148054	      0.22080999	     23.50880028	     18.56588120	      0.00000000	      8.75626643	      0.83523055	     -5.17954069	     13.03975164	      0.22758660	     21.46384862	      1.66968827	      0.00000000	     -0.35697903	      0.02723401	      0.76149241	     -0.66294575	      0.03622124	      0.80908569	     -0.58648084	      0.06621678	      0.80908569	     -0.40799133	      0.06621678	      0.66630586	     -0.33149072	      0.05553560	      0.61871258	     -0.20397782	      0.04218549	      0.57111931	     -2.54986549	      0.30807660	      4.23519234	      0.00000000	      0.00000000	      9.60240110	      3.49659852	      2.77922552	     49.57422842	     -2.33269220	    129.73712081	      0.13875536	      1.57609246	    -67.66711398	    -10.26618054	     50.66281188	      5.38551868	    133.94142904	      0.13610201	      0.87937845	    -69.57879171	    -11.36021727
      2.55932203	     -2.37706273	     -7.27064684	     90.34174659	      0.15828088	      0.94103417	      0.74538933	      7.89544176	     -3.10330491	    -11.78740507	     12.61201595	      0.22012120	     23.57980170	     18.58315406	      0.00000000	      8.93849199	      0.74567101	     -5.38729004	     13.28106288	      0.23179828	     21.36943063	      2.23512600	      0.00000000	     -0.35944015	      0.03691138	      0.68886916	     -0.66751630	      0.04909213	      0.73192348	     -0.59052422	      0.08974633	      0.73192348	     -0.41080414	      0.08974633	      0.60276051	     -0.33377612	      0.07526968	      0.55970619	     -0.20538410	      0.05717573	      0.51665187	     -2.56744502	      0.41754890	      3.83128359	      0.00000000	      0.00000000	      9.44571166	      4.02448899	      3.41085039	     49.66014101	     -2.56791024	    127.13568855	      0.14497303	      1.39799670	    -66.92908400	    -15.03461908	     51.03264409	      5.33347697	    132.02505213	      0.13962626	      0.91659047	    -69.53163243	    -12.83315543
      2.57627119	     -2.37003272	     -7.35643978	     90.28143959	      0.15861421	      0.94063109	      0.74499350	      7.99062801	     -3.07435150	    -11.83097272	     12.65603741	      0.22088952	     23.69432351	     18.58576032	      0.00000000	      9.01324747	      0.71432453	     -5.49767118	     13.40749842	      0.23400499	     21.07780634	      2.09773010	      0.00000000	     -0.35951189	      0.03208521	      0.69122412	     -0.66764953	      0.04267333	      0.73442563	     -0.59064209	      0.07801198	      0.73442563	     -0.41088614	      0.07801198	      0.60482111	     -0.33384274	      0.06542816	      0.56161960	     -0.20542509	      0.04969999	      0.51841809	     -2.56795749	      0.36295430	      3.84438120	      0.00000000	      0.00000000	      9.40446414	      4.25150715	      3.39511632	     49.75495218	     -2.87842008	    127.49044071	      0.14584113	      1.40859906	    -66.24859350	    -15.96471175	     51.37144589	      5.29225029	    131.88025238	      0.14088932	      0.90975350	    -69.49606326	    -12.80342960
